<svg xmlns="http://www.w3.org/2000/svg" width="64" height="64" viewBox="0 0 64 64">
  <rect width="64" height="64" rx="16" fill="#8A9A82"/>
  <g fill="none" stroke="#FBF8F3" stroke-width="3" stroke-linecap="round" stroke-linejoin="round">
    <path d="M32 20c-4 4-4 10 0 14 4-4 4-10 0-14z"/>
    <path d="M44 32c-4-4-10-4-14 0 4 4 10 4 14 0z"/>
    <path d="M32 44c4-4 4-10 0-14-4 4-4 10 0 14z"/>
    <path d="M20 32c4 4 10 4 14 0-4-4-10-4-14 0z"/>
    <circle cx="32" cy="32" r="2.5" fill="#FBF8F3" stroke="none"/>
  </g>
</svg>
